<svg xmlns="http://www.w3.org/2000/svg" xmlns:xlink="http://www.w3.org/1999/xlink" width="1080" zoomAndPan="magnify" viewBox="0 0 810 1012.49997" height="1350" preserveAspectRatio="xMidYMid meet" version="1.0"><defs><g/><clipPath id="aaf7072488"><path d="M 196 240 L 568 240 L 568 421 L 196 421 Z M 196 240 " clip-rule="nonzero"/></clipPath><clipPath id="32ce42c61d"><path d="M 166.632812 286.796875 L 538.03125 202.652344 L 568.34375 336.441406 L 196.945312 420.585938 Z M 166.632812 286.796875 " clip-rule="nonzero"/></clipPath><clipPath id="69a6cd24cf"><path d="M 166.632812 286.796875 L 538.03125 202.652344 L 568.34375 336.441406 L 196.945312 420.585938 Z M 166.632812 286.796875 " clip-rule="nonzero"/></clipPath><clipPath id="c45b71d29e"><rect x="0" width="359" y="0" height="300"/></clipPath><clipPath id="e93899ae15"><rect x="0" width="182" y="0" height="595"/></clipPath><clipPath id="f0a234a70b"><rect x="0" width="216" y="0" height="458"/></clipPath><clipPath id="7c3750279a"><path d="M 171.382812 410.082031 L 215.648438 410.082031 L 215.648438 454.347656 L 171.382812 454.347656 Z M 171.382812 410.082031 " clip-rule="nonzero"/></clipPath><clipPath id="d59673dbbf"><path d="M 193.515625 410.082031 C 181.292969 410.082031 171.382812 419.992188 171.382812 432.214844 C 171.382812 444.4375 181.292969 454.347656 193.515625 454.347656 C 205.738281 454.347656 215.648438 444.4375 215.648438 432.214844 C 215.648438 419.992188 205.738281 410.082031 193.515625 410.082031 Z M 193.515625 410.082031 " clip-rule="nonzero"/></clipPath><clipPath id="119b091d22"><path d="M 0.382812 0.0820312 L 44.648438 0.0820312 L 44.648438 44.347656 L 0.382812 44.347656 Z M 0.382812 0.0820312 " clip-rule="nonzero"/></clipPath><clipPath id="0f4351a778"><path d="M 22.515625 0.0820312 C 10.292969 0.0820312 0.382812 9.992188 0.382812 22.214844 C 0.382812 34.4375 10.292969 44.347656 22.515625 44.347656 C 34.738281 44.347656 44.648438 34.4375 44.648438 22.214844 C 44.648438 9.992188 34.738281 0.0820312 22.515625 0.0820312 Z M 22.515625 0.0820312 " clip-rule="nonzero"/></clipPath><clipPath id="9b2fc30e86"><rect x="0" width="45" y="0" height="45"/></clipPath><clipPath id="cb16c50d8d"><path d="M 538.109375 313.195312 L 582.375 313.195312 L 582.375 357.460938 L 538.109375 357.460938 Z M 538.109375 313.195312 " clip-rule="nonzero"/></clipPath><clipPath id="ab1d7e0286"><path d="M 560.242188 313.195312 C 548.019531 313.195312 538.109375 323.101562 538.109375 335.328125 C 538.109375 347.550781 548.019531 357.460938 560.242188 357.460938 C 572.464844 357.460938 582.375 347.550781 582.375 335.328125 C 582.375 323.101562 572.464844 313.195312 560.242188 313.195312 Z M 560.242188 313.195312 " clip-rule="nonzero"/></clipPath><clipPath id="5c785ce7a4"><path d="M 0.109375 0.195312 L 44.375 0.195312 L 44.375 44.460938 L 0.109375 44.460938 Z M 0.109375 0.195312 " clip-rule="nonzero"/></clipPath><clipPath id="ee2bbe941f"><path d="M 22.242188 0.195312 C 10.019531 0.195312 0.109375 10.101562 0.109375 22.328125 C 0.109375 34.550781 10.019531 44.460938 22.242188 44.460938 C 34.464844 44.460938 44.375 34.550781 44.375 22.328125 C 44.375 10.101562 34.464844 0.195312 22.242188 0.195312 Z M 22.242188 0.195312 " clip-rule="nonzero"/></clipPath><clipPath id="094e74c1c6"><rect x="0" width="45" y="0" height="45"/></clipPath></defs><g clip-path="url(#aaf7072488)"><g clip-path="url(#32ce42c61d)"><g clip-path="url(#69a6cd24cf)"><path fill="#ff0000" d="M 197.101562 420.757812 L 197.195312 420.585938 C 203.867188 401.578125 212.375 383.171875 222.726562 365.371094 C 232.886719 348.535156 245.191406 333.304688 259.644531 319.675781 C 289.75 292.175781 323.898438 274.777344 362.089844 267.472656 C 383.34375 263.015625 403.132812 261.585938 421.460938 263.179688 C 432.832031 263.640625 448.351562 266.613281 468.019531 272.09375 C 486.777344 277.882812 504.789062 286.4375 522.050781 297.761719 C 539.511719 309.769531 554.824219 322.3125 567.996094 335.394531 C 547.976562 299.507812 516.878906 272.964844 474.695312 255.769531 C 452.125 247.117188 431.09375 242.296875 411.605469 241.3125 C 404.800781 240.863281 397.410156 240.722656 389.441406 240.886719 C 381.515625 240.90625 370.597656 242.117188 356.6875 244.511719 C 314.53125 253.519531 277.816406 274.53125 246.546875 307.554688 C 232.578125 322.378906 220.734375 340.214844 211.011719 361.066406 C 207.121094 369.347656 203.625 379.238281 200.523438 390.730469 C 197.285156 403 196.144531 413.007812 197.101562 420.757812 " fill-opacity="1" fill-rule="nonzero"/></g></g></g><g transform="matrix(1, 0, 0, 1, 166, 356)"><g clip-path="url(#c45b71d29e)"><g fill="#205072" fill-opacity="1"><g transform="translate(0.629872, 240.817668)"><g><path d="M 26.828125 -148.046875 C 20.703125 -148.046875 15.691406 -149.695312 11.796875 -153 C 7.910156 -156.3125 5.96875 -160.535156 5.96875 -165.671875 C 5.96875 -170.972656 7.910156 -175.28125 11.796875 -178.59375 C 15.691406 -181.90625 20.703125 -183.5625 26.828125 -183.5625 C 33.117188 -183.5625 38.207031 -181.90625 42.09375 -178.59375 C 45.988281 -175.28125 47.9375 -170.972656 47.9375 -165.671875 C 47.9375 -160.535156 45.988281 -156.3125 42.09375 -153 C 38.207031 -149.695312 33.117188 -148.046875 26.828125 -148.046875 Z M 27.328125 1 C 25.992188 1 23.835938 0.957031 20.859375 0.875 C 17.878906 0.789062 15.316406 0.5 13.171875 0 C 11.671875 -0.332031 10.382812 -1.117188 9.3125 -2.359375 C 8.238281 -3.597656 7.703125 -5.210938 7.703125 -7.203125 C 7.703125 -21.609375 7.742188 -34.316406 7.828125 -45.328125 C 7.910156 -56.335938 8.03125 -66.4375 8.1875 -75.625 C 8.351562 -84.820312 8.601562 -93.679688 8.9375 -102.203125 C 9.269531 -110.734375 9.769531 -119.640625 10.4375 -128.921875 C 10.601562 -131.066406 11.097656 -132.59375 11.921875 -133.5 C 12.753906 -134.414062 14 -134.957031 15.65625 -135.125 C 17.46875 -135.457031 19.570312 -135.707031 21.96875 -135.875 C 24.375 -136.039062 26.242188 -136.125 27.578125 -136.125 C 28.734375 -136.125 30.382812 -136.039062 32.53125 -135.875 C 34.6875 -135.707031 36.59375 -135.457031 38.25 -135.125 C 39.90625 -134.789062 41.144531 -134.207031 41.96875 -133.375 C 42.800781 -132.550781 43.300781 -131.066406 43.46875 -128.921875 C 44.132812 -119.640625 44.628906 -110.734375 44.953125 -102.203125 C 45.285156 -93.679688 45.535156 -84.820312 45.703125 -75.625 C 45.867188 -66.4375 45.992188 -56.296875 46.078125 -45.203125 C 46.160156 -34.109375 46.203125 -21.359375 46.203125 -6.953125 C 46.203125 -4.960938 45.660156 -3.390625 44.578125 -2.234375 C 43.503906 -1.078125 42.222656 -0.332031 40.734375 0 C 38.578125 0.332031 36.132812 0.582031 33.40625 0.75 C 30.675781 0.914062 28.648438 1 27.328125 1 Z M 27.328125 1 "/></g></g></g><g fill="#205072" fill-opacity="1"><g transform="translate(54.528101, 240.817668)"><g><path d="M 26.078125 1 C 23.929688 1 21.53125 0.914062 18.875 0.75 C 16.226562 0.582031 13.910156 0.332031 11.921875 0 C 10.429688 -0.332031 9.101562 -1.078125 7.9375 -2.234375 C 6.78125 -3.390625 6.285156 -5.046875 6.453125 -7.203125 C 6.453125 -22.273438 6.492188 -35.359375 6.578125 -46.453125 C 6.660156 -57.546875 6.867188 -67.5625 7.203125 -76.5 C 7.535156 -85.445312 7.945312 -94.054688 8.4375 -102.328125 C 8.9375 -110.609375 9.6875 -119.390625 10.6875 -128.671875 C 11.175781 -132.472656 12.992188 -134.625 16.140625 -135.125 C 17.960938 -135.457031 19.945312 -135.707031 22.09375 -135.875 C 24.25 -136.039062 26.40625 -136.125 28.5625 -136.125 C 30.882812 -136.125 33.203125 -136.039062 35.515625 -135.875 C 37.835938 -135.707031 40.15625 -135.457031 42.46875 -135.125 C 44.125 -134.957031 45.488281 -134.253906 46.5625 -133.015625 C 47.644531 -131.773438 47.9375 -130.242188 47.4375 -128.421875 C 46.78125 -126.265625 46.242188 -124.109375 45.828125 -121.953125 C 45.410156 -119.804688 45.117188 -117.90625 44.953125 -116.25 C 44.785156 -113.4375 45.238281 -111.90625 46.3125 -111.65625 C 47.394531 -111.40625 48.679688 -112.4375 50.171875 -114.75 C 55.972656 -122.695312 62.222656 -128.410156 68.921875 -131.890625 C 75.628906 -135.367188 83.289062 -137.109375 91.90625 -137.109375 C 102.007812 -137.109375 110.992188 -134.457031 118.859375 -129.15625 C 126.722656 -123.863281 133.015625 -116.289062 137.734375 -106.4375 C 142.453125 -96.582031 145.0625 -84.863281 145.5625 -71.28125 C 145.882812 -64.820312 146.171875 -58.570312 146.421875 -52.53125 C 146.671875 -46.488281 146.878906 -39.863281 147.046875 -32.65625 C 147.210938 -25.457031 147.296875 -16.972656 147.296875 -7.203125 C 147.296875 -5.046875 146.753906 -3.390625 145.671875 -2.234375 C 144.597656 -1.078125 143.148438 -0.332031 141.328125 0 C 139.347656 0.332031 137.03125 0.582031 134.375 0.75 C 131.726562 0.914062 129.742188 1 128.421875 1 C 126.929688 1 124.648438 0.914062 121.578125 0.75 C 118.515625 0.582031 115.828125 0.332031 113.515625 0 C 111.859375 -0.332031 110.410156 -1.078125 109.171875 -2.234375 C 107.929688 -3.390625 107.390625 -4.960938 107.546875 -6.953125 C 108.210938 -12.753906 108.710938 -19.085938 109.046875 -25.953125 C 109.378906 -32.828125 109.625 -39.492188 109.78125 -45.953125 C 109.945312 -52.410156 109.945312 -57.789062 109.78125 -62.09375 C 109.625 -75.34375 106.5625 -85.898438 100.59375 -93.765625 C 94.632812 -101.628906 86.601562 -105.5625 76.5 -105.5625 C 66.894531 -105.5625 58.988281 -101.585938 52.78125 -93.640625 C 46.570312 -85.691406 43.46875 -75.007812 43.46875 -61.59375 C 43.632812 -54.476562 43.878906 -45.910156 44.203125 -35.890625 C 44.535156 -25.867188 45.285156 -16.222656 46.453125 -6.953125 C 46.785156 -4.960938 46.328125 -3.390625 45.078125 -2.234375 C 43.835938 -1.078125 42.390625 -0.332031 40.734375 0 C 38.910156 0.332031 36.507812 0.582031 33.53125 0.75 C 30.550781 0.914062 28.066406 1 26.078125 1 Z M 26.078125 1 "/></g></g></g><g fill="#205072" fill-opacity="1"><g transform="translate(207.529517, 240.817668)"><g><path d="M 27.578125 1 C 25.753906 1 23.3125 0.914062 20.25 0.75 C 17.1875 0.582031 14.660156 0.332031 12.671875 0 C 8.859375 -0.820312 6.953125 -3.140625 6.953125 -6.953125 C 6.953125 -21.359375 7.035156 -36.300781 7.203125 -51.78125 C 7.367188 -67.269531 7.578125 -82.460938 7.828125 -97.359375 C 8.078125 -112.265625 8.488281 -126.21875 9.0625 -139.21875 C 9.644531 -152.21875 10.265625 -163.351562 10.921875 -172.625 C 11.421875 -176.269531 13.492188 -178.34375 17.140625 -178.84375 C 18.960938 -179.175781 21.03125 -179.421875 23.34375 -179.578125 C 25.664062 -179.742188 27.820312 -179.828125 29.8125 -179.828125 C 32.125 -179.828125 34.851562 -179.742188 38 -179.578125 C 41.144531 -179.421875 43.546875 -179.175781 45.203125 -178.84375 C 47.023438 -178.675781 48.472656 -177.890625 49.546875 -176.484375 C 50.628906 -175.078125 51.003906 -173.460938 50.671875 -171.640625 C 50.003906 -166.171875 49.132812 -159.128906 48.0625 -150.515625 C 46.988281 -141.910156 46.035156 -133.007812 45.203125 -123.8125 C 44.378906 -114.625 43.96875 -106.390625 43.96875 -99.109375 C 43.96875 -94.960938 45.039062 -91.566406 47.1875 -88.921875 C 49.34375 -86.273438 51.910156 -84.953125 54.890625 -84.953125 C 62.503906 -84.953125 69.582031 -87.0625 76.125 -91.28125 C 82.664062 -95.507812 88.085938 -100.972656 92.390625 -107.671875 C 96.703125 -114.378906 99.109375 -121.460938 99.609375 -128.921875 C 99.609375 -132.222656 101.507812 -134.289062 105.3125 -135.125 C 107.632812 -135.457031 110.160156 -135.707031 112.890625 -135.875 C 115.617188 -136.039062 117.976562 -136.125 119.96875 -136.125 C 121.789062 -136.125 123.738281 -136.082031 125.8125 -136 C 127.882812 -135.914062 130.078125 -135.625 132.390625 -135.125 C 136.535156 -134.289062 138.523438 -132.222656 138.359375 -128.921875 C 138.191406 -119.148438 136.613281 -110.535156 133.625 -103.078125 C 130.644531 -95.628906 125.429688 -89.503906 117.984375 -84.703125 C 110.535156 -79.898438 100.019531 -76.421875 86.4375 -74.265625 C 84.28125 -73.929688 83.203125 -73.1875 83.203125 -72.03125 C 83.203125 -70.875 84.28125 -70.128906 86.4375 -69.796875 C 101.34375 -67.972656 112.9375 -64.453125 121.21875 -59.234375 C 129.5 -54.023438 135.5 -47.03125 139.21875 -38.25 C 142.945312 -29.476562 145.304688 -18.71875 146.296875 -5.96875 C 146.460938 -2.65625 144.394531 -0.582031 140.09375 0.25 C 137.601562 0.582031 135.238281 0.789062 133 0.875 C 130.769531 0.957031 128.910156 1 127.421875 1 C 125.597656 1 122.988281 0.957031 119.59375 0.875 C 116.207031 0.789062 113.101562 0.582031 110.28125 0.25 C 106.476562 -0.582031 104.410156 -2.570312 104.078125 -5.71875 C 103.742188 -13.664062 101.960938 -20.828125 98.734375 -27.203125 C 95.503906 -33.578125 91.445312 -39.039062 86.5625 -43.59375 C 81.675781 -48.144531 76.375 -51.660156 70.65625 -54.140625 C 64.945312 -56.628906 59.363281 -57.875 53.90625 -57.875 C 51.25 -57.875 48.96875 -56.796875 47.0625 -54.640625 C 45.164062 -52.492188 44.132812 -49.765625 43.96875 -46.453125 C 43.800781 -39.828125 43.921875 -33.367188 44.328125 -27.078125 C 44.742188 -20.785156 45.453125 -14.078125 46.453125 -6.953125 C 46.785156 -4.960938 46.367188 -3.347656 45.203125 -2.109375 C 44.046875 -0.867188 42.554688 -0.0820312 40.734375 0.25 C 38.910156 0.414062 36.710938 0.582031 34.140625 0.75 C 31.578125 0.914062 29.390625 1 27.578125 1 Z M 27.578125 1 "/></g></g></g></g></g><g transform="matrix(1, 0, 0, 1, 76, 208)"><g clip-path="url(#e93899ae15)"><g fill="#205072" fill-opacity="1"><g transform="translate(0.0251391, 467.988073)"><g><path d="M 168.734375 0 L 26.453125 0 C 20.796875 0 17.96875 -3.160156 17.96875 -9.484375 L 17.96875 -335.703125 C 17.96875 -342.191406 20.710938 -345.4375 26.203125 -345.4375 L 76.125 -345.4375 C 81.613281 -345.4375 84.359375 -342.191406 84.359375 -335.703125 L 84.359375 -60.15625 L 168.734375 -60.15625 C 173.390625 -60.15625 175.71875 -57.328125 175.71875 -51.671875 L 175.71875 -8.984375 C 175.71875 -2.992188 173.390625 0 168.734375 0 Z M 168.734375 0 "/></g></g></g></g></g><g transform="matrix(1, 0, 0, 1, 521, 277)"><g clip-path="url(#f0a234a70b)"><g fill="#29d45f" fill-opacity="1"><g transform="translate(0.460588, 360.043085)"><g><path d="M 64.96875 -258.5625 L 64.96875 -7.3125 C 64.96875 -2.4375 62.851562 0 58.625 0 L 20.1875 0 C 15.957031 0 13.84375 -2.4375 13.84375 -7.3125 L 13.84375 -258.5625 C 13.84375 -263.5625 15.957031 -266.0625 20.1875 -266.0625 L 58.625 -266.0625 C 62.851562 -266.0625 64.96875 -263.5625 64.96875 -258.5625 Z M 64.96875 -258.5625 "/></g></g></g><g fill="#29d45f" fill-opacity="1"><g transform="translate(72.776177, 360.043085)"><g><path d="M 135.71875 -259.140625 L 135.71875 -226.453125 C 135.71875 -221.710938 133.988281 -219.34375 130.53125 -219.34375 L 64.96875 -219.34375 L 64.96875 -153.796875 L 115.53125 -153.796875 C 117.070312 -153.796875 118.414062 -153.3125 119.5625 -152.34375 C 120.71875 -151.382812 121.296875 -149.625 121.296875 -147.0625 L 121.296875 -114.375 C 121.296875 -109.894531 119.375 -107.65625 115.53125 -107.65625 L 64.96875 -107.65625 L 64.96875 -7.3125 C 64.96875 -2.4375 62.921875 0 58.828125 0 L 20.375 0 C 16.019531 0 13.84375 -2.4375 13.84375 -7.3125 L 13.84375 -258.5625 C 13.84375 -263.5625 16.019531 -266.0625 20.375 -266.0625 L 130.53125 -266.0625 C 133.988281 -266.0625 135.71875 -263.753906 135.71875 -259.140625 Z M 135.71875 -259.140625 "/></g></g></g></g></g><g clip-path="url(#7c3750279a)"><g clip-path="url(#d59673dbbf)"><g transform="matrix(1, 0, 0, 1, 171, 410)"><g clip-path="url(#9b2fc30e86)"><g clip-path="url(#119b091d22)"><g clip-path="url(#0f4351a778)"><path fill="#ff0000" d="M 0.382812 0.0820312 L 44.648438 0.0820312 L 44.648438 44.347656 L 0.382812 44.347656 Z M 0.382812 0.0820312 " fill-opacity="1" fill-rule="nonzero"/></g></g></g></g></g></g><g clip-path="url(#cb16c50d8d)"><g clip-path="url(#ab1d7e0286)"><g transform="matrix(1, 0, 0, 1, 538, 313)"><g clip-path="url(#094e74c1c6)"><g clip-path="url(#5c785ce7a4)"><g clip-path="url(#ee2bbe941f)"><path fill="#ff0000" d="M 0.109375 0.195312 L 44.375 0.195312 L 44.375 44.460938 L 0.109375 44.460938 Z M 0.109375 0.195312 " fill-opacity="1" fill-rule="nonzero"/></g></g></g></g></g></g></svg>