<svg xmlns="http://www.w3.org/2000/svg" width="391.5" height="146" viewBox="0 0 783 292" fill="none">
<path d="M5.84849 63.0766C5.84849 88.2704 23.9698 109.488 62.8672 123.631C91.1569 134.238 102.206 143.969 102.206 162.528C102.206 180.653 88.9471 194.353 61.1005 194.353C41.6499 194.353 21.3188 186.4 9.38565 179.329L0.101562 208.498C15.1307 217.339 36.7873 223.527 60.2162 223.527C110.164 223.527 139.778 197.01 139.778 158.993C139.778 127.168 120.329 108.607 83.6432 94.8997C55.7948 83.8527 43.4204 75.896 43.4204 58.2159C43.4204 42.3006 55.7948 29.0419 78.7806 29.0419C98.6705 29.0419 114.143 36.5555 122.539 41.4219L131.823 13.5716C120.329 6.05986 101.323 0.311081 79.663 0.311081C34.1382 0.311081 5.84849 28.6007 5.84849 63.0766Z" fill="#03DAC5"/>
<path d="M307.739 5.17447V136.01C307.739 143.523 306.412 150.596 304.202 155.898C297.133 173.58 279.008 191.701 252.928 191.701C218.009 191.701 205.194 163.854 205.194 123.187V5.17447H166.298V130.261C166.298 204.961 206.519 223.971 240.111 223.971C278.124 223.971 301.11 201.422 310.833 184.187H311.718L313.925 219.106H348.401C347.078 202.31 346.635 182.864 346.635 160.319V5.17447H307.739Z" fill="#03DAC5"/>
<path d="M387.301 18.8762L396.142 44.9543C411.168 34.7859 431.942 29.0408 452.277 29.0408C496.033 28.5996 500.899 60.8658 500.899 78.5459V82.9692C418.24 82.5261 372.272 110.814 372.272 162.527C372.272 193.473 394.374 223.971 437.691 223.971C468.186 223.971 491.617 208.938 503.107 192.144H504.433L507.97 219.106H542.889C540.679 204.518 539.795 186.399 539.795 167.834V87.8281C539.795 44.9543 523.879 0.309982 458.022 0.309982C431.061 0.309982 404.981 7.82356 387.301 18.8762ZM411.168 158.113C411.168 116.559 459.349 109.043 501.782 109.928V147.06C501.782 151.039 501.339 155.456 500.011 159.433C493.827 177.558 475.704 195.236 447.414 195.236C427.969 195.236 411.168 183.744 411.168 158.113Z" fill="#03DAC5"/>
<path d="M616.262 41.8608H615.375L613.166 5.17493H578.248C579.572 25.5042 580.013 47.6057 580.013 75.0111V291.435H618.911V190.374H619.797C632.612 211.591 656.924 223.971 685.653 223.971C735.601 223.971 782.898 185.958 782.898 109.044C782.898 44.0724 744.002 0.310516 691.848 0.310516C657.367 0.310516 631.732 15.3397 616.262 41.8608ZM620.683 147.941C619.354 143.081 618.911 137.332 618.911 132.032V94.8991C618.911 90.0421 620.238 84.2914 621.122 79.4325C628.634 49.8192 653.831 31.2512 680.351 31.2512C721.46 31.2512 743.559 67.9387 743.559 110.814C743.559 159.878 719.691 193.474 678.582 193.474C651.179 193.474 627.31 174.907 620.683 147.941Z" fill="#03DAC5"/>
</svg>